<svg width="192" height="103" viewBox="0 0 192 103" fill="none" xmlns="http://www.w3.org/2000/svg">
<path d="M39.8918 49.4009L45.6494 43.1756L39.1721 36.061H56.342V27.1678H39.1721L45.7522 20.0533L39.8918 13.828L23.4416 31.6144L39.8918 49.4009ZM60.4546 102.76C62.7165 102.76 64.6521 101.89 66.2615 100.15C67.8709 98.4099 68.6769 96.3155 68.6797 93.8669C68.6824 91.4183 67.8764 89.3255 66.2615 87.5883C64.6466 85.8512 62.711 84.9796 60.4546 84.9737C58.1981 84.9678 56.2611 85.8393 54.6435 87.5883C53.0259 89.3373 52.2212 91.4302 52.2295 93.8669C52.2377 96.3037 53.0424 98.398 54.6435 100.15C56.2447 101.902 58.1817 102.772 60.4546 102.76ZM19.329 102.76C21.5909 102.76 23.5266 101.89 25.1359 100.15C26.7453 98.4099 27.5514 96.3155 27.5541 93.8669C27.5569 91.4183 26.7508 89.3255 25.1359 87.5883C23.5211 85.8512 21.5854 84.9796 19.329 84.9737C17.0726 84.9678 15.1356 85.8393 13.518 87.5883C11.9004 89.3373 11.0957 91.4302 11.1039 93.8669C11.1121 96.3037 11.9168 98.398 13.518 100.15C15.1191 101.902 17.0561 102.772 19.329 102.76ZM85.1299 22.7212V13.828H71.6613L54.1829 53.8475H25.395L9.35607 22.7212H0L20.46 62.7407H55.9308L60.4546 71.6339H11.1039V80.5271H74.3344L62.0996 56.5154L76.9048 22.7212H85.1299Z" fill="white"/>
<path d="M76.0087 55.0139H110.192H76.0087ZM80.7381 69.2285H188.407H80.7381ZM91.5483 18.2018H143.034H91.5483Z" fill="white"/>
<path d="M76.0087 55.0139H110.192M80.7381 69.2285H188.407M91.5483 18.2018H143.034M83.1029 31.3229H188.407" stroke="white" stroke-width="5" stroke-linecap="round" stroke-linejoin="round"/>
<path d="M79.613 91.078C78.7706 91.078 77.9906 90.7972 77.3354 90.2044L77.9126 89.518C78.443 89.9782 78.9578 90.2278 79.6364 90.2278C80.2292 90.2278 80.6036 89.947 80.6036 89.5414V89.5258C80.6036 89.1436 80.3852 88.9174 79.3712 88.6912C78.209 88.4182 77.5538 88.0594 77.5538 87.061V87.0454C77.5538 86.1094 78.3338 85.462 79.418 85.462C80.2214 85.462 80.8376 85.7038 81.3992 86.1484L80.8844 86.8738C80.3852 86.5072 79.9016 86.3122 79.4024 86.3122C78.8408 86.3122 78.5132 86.593 78.5132 86.9596V86.9752C78.5132 87.3964 78.7628 87.5836 79.8158 87.8332C80.9624 88.1296 81.563 88.5196 81.563 89.4322V89.4478C81.563 90.4774 80.7596 91.078 79.613 91.078ZM84.4697 91.0936C83.2841 91.0936 82.3559 90.2278 82.3559 88.9564V88.9408C82.3559 87.7552 83.1905 86.7958 84.3683 86.7958C85.6787 86.7958 86.3417 87.8254 86.3417 89.011C86.3417 89.0968 86.3339 89.1826 86.3261 89.2762H83.2997C83.4011 89.9548 83.8691 90.3214 84.4853 90.3214C84.9533 90.3214 85.2653 90.1498 85.6007 89.83L86.1545 90.3214C85.7567 90.7894 85.2263 91.0936 84.4697 91.0936ZM83.2919 88.6522H85.4057C85.3433 88.0516 84.9845 87.568 84.3605 87.568C83.7755 87.568 83.3777 88.0048 83.2919 88.6522ZM87.3363 91V85.306H88.2879V91H87.3363ZM89.7319 91V87.6928H89.2093V86.905H89.7319V86.6008C89.7319 86.1484 89.8411 85.813 90.0673 85.5868C90.2857 85.3684 90.5899 85.2592 90.9877 85.2592C91.3231 85.2592 91.5493 85.306 91.7599 85.3684V86.164C91.5727 86.1016 91.4167 86.0626 91.2061 86.0626C90.8395 86.0626 90.6601 86.2732 90.6601 86.6866V86.9128H91.7521V87.6928H90.6757V91H89.7319ZM97.4366 91.0936C95.8454 91.0936 94.6598 89.8534 94.6598 88.2856V88.27C94.6598 86.7178 95.822 85.4464 97.4678 85.4464C98.4818 85.4464 99.0902 85.7974 99.6128 86.2966L98.9966 87.0064C98.552 86.6008 98.0918 86.3356 97.46 86.3356C96.4304 86.3356 95.666 87.1858 95.666 88.2544V88.27C95.666 89.3386 96.4226 90.2044 97.4678 90.2044C98.1308 90.2044 98.5676 89.9392 99.0356 89.5024L99.6518 90.1264C99.098 90.727 98.4506 91.0936 97.4366 91.0936ZM100.551 91V85.306H101.502V87.5134C101.775 87.1312 102.142 86.7958 102.789 86.7958C103.725 86.7958 104.256 87.412 104.256 88.3714V91H103.312V88.66C103.312 88.0126 102.992 87.6538 102.431 87.6538C101.877 87.6538 101.502 88.0282 101.502 88.6756V91H100.551ZM107.283 91.0936C106.098 91.0936 105.169 90.2278 105.169 88.9564V88.9408C105.169 87.7552 106.004 86.7958 107.182 86.7958C108.492 86.7958 109.155 87.8254 109.155 89.011C109.155 89.0968 109.147 89.1826 109.14 89.2762H106.113C106.215 89.9548 106.683 90.3214 107.299 90.3214C107.767 90.3214 108.079 90.1498 108.414 89.83L108.968 90.3214C108.57 90.7894 108.04 91.0936 107.283 91.0936ZM106.105 88.6522H108.219C108.157 88.0516 107.798 87.568 107.174 87.568C106.589 87.568 106.191 88.0048 106.105 88.6522ZM112.006 91.0936C110.782 91.0936 109.877 90.1342 109.877 88.9642V88.9486C109.877 87.7786 110.782 86.7958 112.022 86.7958C112.794 86.7958 113.27 87.0844 113.668 87.5056L113.075 88.1374C112.786 87.8332 112.482 87.6226 112.014 87.6226C111.328 87.6226 110.821 88.2154 110.821 88.933V88.9486C110.821 89.6818 111.328 90.2668 112.053 90.2668C112.498 90.2668 112.817 90.064 113.122 89.7598L113.691 90.3214C113.285 90.7816 112.81 91.0936 112.006 91.0936ZM114.551 91V85.306H115.503V88.7068L117.211 86.8816H118.358L116.72 88.5586L118.412 91H117.305L116.088 89.2138L115.503 89.8222V91H114.551ZM120.859 91.0936C119.603 91.0936 118.675 90.1342 118.675 88.9642V88.9486C118.675 87.7708 119.611 86.7958 120.874 86.7958C122.146 86.7958 123.066 87.7552 123.066 88.933V88.9486C123.066 90.1108 122.13 91.0936 120.859 91.0936ZM120.874 90.2668C121.646 90.2668 122.122 89.674 122.122 88.9642V88.9486C122.122 88.2232 121.6 87.6226 120.859 87.6226C120.102 87.6226 119.618 88.2154 119.618 88.933V88.9486C119.618 89.6662 120.149 90.2668 120.874 90.2668ZM125.447 91.0858C124.511 91.0858 123.98 90.4696 123.98 89.5024V86.8816H124.924V89.2216C124.924 89.869 125.244 90.22 125.806 90.22C126.359 90.22 126.734 89.8534 126.734 89.206V86.8816H127.685V91H126.734V90.3604C126.461 90.7582 126.079 91.0858 125.447 91.0858ZM130.245 91.0702C129.551 91.0702 129.059 90.766 129.059 89.8612V87.6928H128.537V86.8816H129.059V85.7506H130.003V86.8816H131.111V87.6928H130.003V89.713C130.003 90.0796 130.19 90.2278 130.51 90.2278C130.713 90.2278 130.908 90.181 131.095 90.0874V90.8596C130.853 90.9922 130.611 91.0702 130.245 91.0702ZM136.43 91.078C135.587 91.078 134.807 90.7972 134.152 90.2044L134.729 89.518C135.26 89.9782 135.774 90.2278 136.453 90.2278C137.046 90.2278 137.42 89.947 137.42 89.5414V89.5258C137.42 89.1436 137.202 88.9174 136.188 88.6912C135.026 88.4182 134.37 88.0594 134.37 87.061V87.0454C134.37 86.1094 135.15 85.462 136.235 85.462C137.038 85.462 137.654 85.7038 138.216 86.1484L137.701 86.8738C137.202 86.5072 136.718 86.3122 136.219 86.3122C135.657 86.3122 135.33 86.593 135.33 86.9596V86.9752C135.33 87.3964 135.579 87.5836 136.632 87.8332C137.779 88.1296 138.38 88.5196 138.38 89.4322V89.4478C138.38 90.4774 137.576 91.078 136.43 91.078ZM139.391 91V85.306H140.342V87.5134C140.615 87.1312 140.982 86.7958 141.629 86.7958C142.565 86.7958 143.096 87.412 143.096 88.3714V91H142.152V88.66C142.152 88.0126 141.832 87.6538 141.271 87.6538C140.717 87.6538 140.342 88.0282 140.342 88.6756V91H139.391ZM146.193 91.0936C144.938 91.0936 144.009 90.1342 144.009 88.9642V88.9486C144.009 87.7708 144.945 86.7958 146.209 86.7958C147.48 86.7958 148.401 87.7552 148.401 88.933V88.9486C148.401 90.1108 147.465 91.0936 146.193 91.0936ZM146.209 90.2668C146.981 90.2668 147.457 89.674 147.457 88.9642V88.9486C147.457 88.2232 146.934 87.6226 146.193 87.6226C145.437 87.6226 144.953 88.2154 144.953 88.933V88.9486C144.953 89.6662 145.484 90.2668 146.209 90.2668ZM149.354 92.248V86.8816H150.306V87.568C150.61 87.139 151.031 86.7958 151.71 86.7958C152.677 86.7958 153.621 87.5602 153.621 88.933V88.9486C153.621 90.3214 152.685 91.0858 151.71 91.0858C151.023 91.0858 150.594 90.7426 150.306 90.3604V92.248H149.354ZM151.484 90.2668C152.131 90.2668 152.661 89.7598 152.661 88.9486V88.933C152.661 88.1374 152.115 87.6148 151.484 87.6148C150.836 87.6148 150.282 88.1452 150.282 88.933V88.9486C150.282 89.7364 150.836 90.2668 151.484 90.2668ZM154.587 92.248V86.8816H155.539V87.568C155.843 87.139 156.264 86.7958 156.943 86.7958C157.91 86.7958 158.854 87.5602 158.854 88.933V88.9486C158.854 90.3214 157.918 91.0858 156.943 91.0858C156.256 91.0858 155.827 90.7426 155.539 90.3604V92.248H154.587ZM156.717 90.2668C157.364 90.2668 157.894 89.7598 157.894 88.9486V88.933C157.894 88.1374 157.348 87.6148 156.717 87.6148C156.069 87.6148 155.515 88.1452 155.515 88.933V88.9486C155.515 89.7364 156.069 90.2668 156.717 90.2668ZM159.844 86.2498V85.3528H160.858V86.2498H159.844ZM159.875 91V86.8816H160.826V91H159.875ZM162.052 91V86.8816H163.004V87.5134C163.277 87.1312 163.643 86.7958 164.291 86.7958C165.227 86.7958 165.757 87.412 165.757 88.3714V91H164.813V88.66C164.813 88.0126 164.493 87.6538 163.932 87.6538C163.378 87.6538 163.004 88.0282 163.004 88.6756V91H162.052ZM168.73 92.2636C168.043 92.2636 167.427 92.0998 166.889 91.7722L167.24 91.0624C167.685 91.3354 168.145 91.4914 168.706 91.4914C169.549 91.4914 170.009 91.0702 170.009 90.2356V89.9236C169.666 90.3604 169.237 90.6724 168.558 90.6724C167.583 90.6724 166.686 89.9548 166.686 88.7458V88.7302C166.686 87.5134 167.591 86.7958 168.558 86.7958C169.252 86.7958 169.681 87.1156 170.001 87.4978V86.8816H170.945V90.1576C170.945 90.844 170.773 91.3588 170.422 91.7098C170.048 92.0842 169.479 92.2636 168.73 92.2636ZM168.808 89.869C169.463 89.869 170.017 89.4088 170.017 88.738V88.7224C170.017 88.0594 169.463 87.5992 168.808 87.5992C168.153 87.5992 167.638 88.0438 167.638 88.7224V88.738C167.638 89.4088 168.16 89.869 168.808 89.869ZM177.112 91.0936C175.521 91.0936 174.336 89.8534 174.336 88.2856V88.27C174.336 86.7178 175.498 85.4464 177.144 85.4464C178.158 85.4464 178.766 85.7974 179.289 86.2966L178.672 87.0064C178.228 86.6008 177.768 86.3356 177.136 86.3356C176.106 86.3356 175.342 87.1858 175.342 88.2544V88.27C175.342 89.3386 176.098 90.2044 177.144 90.2044C177.807 90.2044 178.243 89.9392 178.711 89.5024L179.328 90.1264C178.774 90.727 178.126 91.0936 177.112 91.0936ZM181.42 91.0858C180.648 91.0858 179.954 90.649 179.954 89.8144V89.7988C179.954 88.9018 180.656 88.4728 181.662 88.4728C182.13 88.4728 182.45 88.543 182.769 88.6444V88.543C182.769 87.9502 182.411 87.646 181.748 87.646C181.28 87.646 180.944 87.7474 180.57 87.9034L180.312 87.1624C180.773 86.9674 181.217 86.827 181.872 86.827C182.489 86.827 182.941 86.983 183.237 87.2872C183.542 87.5914 183.682 88.0204 183.682 88.5586V91H182.762V90.4852C182.481 90.8206 182.052 91.0858 181.42 91.0858ZM181.685 90.3994C182.309 90.3994 182.785 90.0484 182.785 89.518V89.2372C182.543 89.1436 182.223 89.0734 181.849 89.0734C181.233 89.0734 180.882 89.323 180.882 89.7598V89.7754C180.882 90.1732 181.225 90.3994 181.685 90.3994ZM184.805 91V86.8816H185.756V87.8098C186.014 87.1858 186.489 86.7724 187.215 86.8036V87.802H187.16C186.326 87.802 185.756 88.3402 185.756 89.4322V91H184.805ZM189.415 91.0702C188.721 91.0702 188.229 90.766 188.229 89.8612V87.6928H187.707V86.8816H188.229V85.7506H189.173V86.8816H190.281V87.6928H189.173V89.713C189.173 90.0796 189.36 90.2278 189.68 90.2278C189.883 90.2278 190.078 90.181 190.265 90.0874V90.8596C190.023 90.9922 189.782 91.0702 189.415 91.0702Z" fill="white"/>
<path d="M160.894 23.364C155.226 23.364 150.988 19.464 150.988 13.952V13.9C150.988 8.596 155.148 4.436 160.79 4.436C163.988 4.436 166.25 5.424 168.174 7.088L165.21 10.65C163.91 9.558 162.61 8.934 160.816 8.934C158.19 8.934 156.162 11.144 156.162 13.926V13.978C156.162 16.916 158.216 19.022 161.102 19.022C162.324 19.022 163.26 18.762 164.014 18.268V16.058H160.426V12.366H168.798V20.556C166.874 22.142 164.196 23.364 160.894 23.364ZM180.746 23.364C175.13 23.364 170.97 19.178 170.97 13.952V13.9C170.97 8.674 175.182 4.436 180.798 4.436C186.414 4.436 190.574 8.622 190.574 13.848V13.9C190.574 19.126 186.362 23.364 180.746 23.364ZM180.798 18.814C183.58 18.814 185.426 16.578 185.426 13.952V13.9C185.426 11.274 183.528 8.986 180.746 8.986C177.99 8.986 176.144 11.222 176.144 13.848V13.9C176.144 16.526 178.042 18.814 180.798 18.814Z" fill="white"/>
<path d="M126.374 61.364C121.174 61.364 116.988 57.386 116.988 51.952V51.9C116.988 46.596 121.07 42.436 126.582 42.436C130.3 42.436 132.692 43.996 134.304 46.232L130.508 49.17C129.468 47.87 128.272 47.038 126.53 47.038C123.982 47.038 122.188 49.196 122.188 51.848V51.9C122.188 54.63 123.982 56.762 126.53 56.762C128.428 56.762 129.546 55.878 130.638 54.552L134.434 57.256C132.718 59.622 130.404 61.364 126.374 61.364ZM134.996 61L142.744 42.67H147.606L155.354 61H149.946L148.62 57.75H141.6L140.3 61H134.996ZM143.082 53.824H147.164L145.136 48.65L143.082 53.824ZM157.12 61V42.8H165.726C168.508 42.8 170.432 43.528 171.654 44.776C172.72 45.816 173.266 47.22 173.266 49.014V49.066C173.266 51.848 171.784 53.694 169.522 54.656L173.864 61H168.04L164.374 55.488H162.164V61H157.12ZM162.164 51.536H165.492C167.208 51.536 168.196 50.704 168.196 49.378V49.326C168.196 47.896 167.156 47.168 165.466 47.168H162.164V51.536ZM180.253 61V47.22H174.793V42.8H190.757V47.22H185.297V61H180.253Z" fill="white"/>
</svg>
