<svg width="44" height="26" viewBox="0 0 44 26" fill="none" xmlns="http://www.w3.org/2000/svg">
<mask id="path-1-inside-1_740_248" fill="white">
<path d="M12.2651 10.1372L14.0353 8.36318L12.0438 6.33574H17.3228V3.80145H12.0438L14.0669 1.77401L12.2651 0L7.20731 5.06859L12.2651 10.1372ZM18.5873 25.343C19.2827 25.343 19.8778 25.095 20.3727 24.5992C20.8675 24.1033 21.1153 23.5064 21.1162 22.8087C21.117 22.1109 20.8692 21.5145 20.3727 21.0195C19.8762 20.5244 19.281 20.2761 18.5873 20.2744C17.8935 20.2727 17.298 20.521 16.8006 21.0195C16.3033 21.5179 16.0559 22.1143 16.0584 22.8087C16.0609 23.5031 16.3083 24.0999 16.8006 24.5992C17.2929 25.0984 17.8885 25.3463 18.5873 25.343ZM5.94287 25.343C6.63831 25.343 7.23344 25.095 7.72826 24.5992C8.22308 24.1033 8.47091 23.5064 8.47175 22.8087C8.4726 22.1109 8.22476 21.5145 7.72826 21.0195C7.23176 20.5244 6.63663 20.2761 5.94287 20.2744C5.24911 20.2727 4.65356 20.521 4.15622 21.0195C3.65887 21.5179 3.41146 22.1143 3.41399 22.8087C3.41652 23.5031 3.66393 24.0999 4.15622 24.5992C4.64851 25.0984 5.24406 25.3463 5.94287 25.343ZM26.1739 2.5343V0H22.0329L16.659 11.4043H7.80792L2.8766 2.5343H0L6.29059 13.9386H17.1964L18.5873 16.4729H3.41399V19.0072H22.8548L19.0931 12.1646L23.645 2.5343H26.1739Z"/>
</mask>
<path d="M12.2651 10.1372L14.0353 8.36318L12.0438 6.33574H17.3228V3.80145H12.0438L14.0669 1.77401L12.2651 0L7.20731 5.06859L12.2651 10.1372ZM18.5873 25.343C19.2827 25.343 19.8778 25.095 20.3727 24.5992C20.8675 24.1033 21.1153 23.5064 21.1162 22.8087C21.117 22.1109 20.8692 21.5145 20.3727 21.0195C19.8762 20.5244 19.281 20.2761 18.5873 20.2744C17.8935 20.2727 17.298 20.521 16.8006 21.0195C16.3033 21.5179 16.0559 22.1143 16.0584 22.8087C16.0609 23.5031 16.3083 24.0999 16.8006 24.5992C17.2929 25.0984 17.8885 25.3463 18.5873 25.343ZM5.94287 25.343C6.63831 25.343 7.23344 25.095 7.72826 24.5992C8.22308 24.1033 8.47091 23.5064 8.47175 22.8087C8.4726 22.1109 8.22476 21.5145 7.72826 21.0195C7.23176 20.5244 6.63663 20.2761 5.94287 20.2744C5.24911 20.2727 4.65356 20.521 4.15622 21.0195C3.65887 21.5179 3.41146 22.1143 3.41399 22.8087C3.41652 23.5031 3.66393 24.0999 4.15622 24.5992C4.64851 25.0984 5.24406 25.3463 5.94287 25.343ZM26.1739 2.5343V0H22.0329L16.659 11.4043H7.80792L2.8766 2.5343H0L6.29059 13.9386H17.1964L18.5873 16.4729H3.41399V19.0072H22.8548L19.0931 12.1646L23.645 2.5343H26.1739Z" fill="white" stroke="#0FA958" stroke-width="6" mask="url(#path-1-inside-1_740_248)"/>
<path d="M23.3696 11.7367H32.4058H23.3696ZM24.8237 15.7874H39.4686H24.8237ZM28.1473 1.24634H38.8454H28.1473Z" fill="white"/>
<path d="M23.3696 11.7367H32.4058M24.8237 15.7874H39.4686M28.1473 1.24634H38.8454M25.5507 4.98547H43" stroke="#0FA958" stroke-width="2" stroke-linecap="round" stroke-linejoin="round"/>
</svg>
